<svg xmlns="http://www.w3.org/2000/svg" viewBox="0 0 64 64" role="img" aria-label="Weather">
  <defs>
    <linearGradient id="sun" x1="0" x2="0" y1="0" y2="1">
      <stop offset="0" stop-color="#FFD66B"/>
      <stop offset="1" stop-color="#FFB300"/>
    </linearGradient>
    <linearGradient id="cloud" x1="0" x2="0" y1="0" y2="1">
      <stop offset="0" stop-color="#F6FAFF"/>
      <stop offset="1" stop-color="#D7E6FF"/>
    </linearGradient>
  </defs>

  <g>
    <circle cx="23" cy="24" r="10" fill="url(#sun)"/>
    <g stroke="#FFB300" stroke-width="3" stroke-linecap="round" opacity="0.9">
      <path d="M23 6v6"/>
      <path d="M23 42v6"/>
      <path d="M5 24h6"/>
      <path d="M35 24h6"/>
      <path d="M10.5 11.5l4.2 4.2"/>
      <path d="M31.3 32.3l4.2 4.2"/>
      <path d="M35.5 11.5l-4.2 4.2"/>
      <path d="M14.7 32.3l-4.2 4.2"/>
    </g>

    <path
      d="M42.5 46.5H21.5c-6 0-10.8-4.3-10.8-9.6 0-4.7 3.8-8.7 8.9-9.5 1.7-7 8.4-12.2 16.2-12.2 7.8 0 14.5 5.1 16.2 12.2 5.1.8 8.9 4.8 8.9 9.5 0 5.3-4.8 9.6-10.8 9.6z"
      fill="url(#cloud)"
      stroke="rgba(11, 120, 255, 0.25)"
      stroke-width="2"
      stroke-linejoin="round"
    />
  </g>
</svg>
